<svg xmlns="http://www.w3.org/2000/svg" xml:space="preserve" style="enable-background:new 0 0 45 45" viewBox="0 0 45 45"><defs><clipPath id="a" clipPathUnits="userSpaceOnUse"><path d="M0 36h36V0H0v36Z"/></clipPath></defs><g clip-path="url(#a)" transform="matrix(1.25 0 0 -1.25 0 45)"><path d="M0 0c0-9.941-8.059-18-18-18-9.94 0-18 8.059-18 18 0 9.94 8.06 18 18 18C-8.059 18 0 9.94 0 0" style="fill:#ffcc4d;fill-opacity:1;fill-rule:nonzero;stroke:none" transform="translate(36 18)"/><path d="M0 0c-.059.135-1.499 3.297-4.457 3.297C-7.414 3.297-8.854.135-8.914 0a.499.499 0 0 1 .144-.591.504.504 0 0 1 .611-.014c.012.009 1.262.902 3.702.902 2.426 0 3.674-.881 3.702-.901A.498.498 0 0 1 0 0" style="fill:#664500;fill-opacity:1;fill-rule:nonzero;stroke:none" transform="translate(28.457 18.203)"/><path d="M0 0c-.06.135-1.499 3.297-4.457 3.297C-7.414 3.297-8.854.135-8.914 0a.499.499 0 0 1 .754-.605c.013.009 1.262.902 3.703.902 2.426 0 3.674-.881 3.702-.901A.498.498 0 0 1 0 0" style="fill:#664500;fill-opacity:1;fill-rule:nonzero;stroke:none" transform="translate(16.457 18.203)"/><path d="M0 0c-.396 0-.772.238-.929.629C-2.707 5.074-7.151 6.01-7.196 6.02a.999.999 0 1 0 .392 1.96c.226-.044 5.556-1.168 7.733-6.608A1 1 0 0 0 0 0" style="fill:#664500;fill-opacity:1;fill-rule:nonzero;stroke:none" transform="translate(31 20)"/><path d="M0 0a1 1 0 0 0-.928 1.372c2.176 5.44 7.507 6.564 7.732 6.608A1 1 0 0 0 7.2 6.02C7.015 5.982 2.693 5.04.929.629A1.003 1.003 0 0 0 0 0" style="fill:#664500;fill-opacity:1;fill-rule:nonzero;stroke:none" transform="translate(5 20)"/><path d="M0 0c-3.623 0-6.027.422-9 1-.679.131-2 0-2-2 0-4 4.595-9 11-9 6.404 0 11 5 11 9 0 2-1.321 2.132-2 2C6.027.422 3.623 0 0 0" style="fill:#664500;fill-opacity:1;fill-rule:nonzero;stroke:none" transform="translate(18 14)"/><path d="M0 0s3-1 9-1 9 1 9 1-2-4-9-4-9 4-9 4" style="fill:#fff;fill-opacity:1;fill-rule:nonzero;stroke:none" transform="translate(9 13)"/><path d="M0 0a5 5 0 0 0-6.077-3.615 4.998 4.998 0 0 0-3.615 6.076c.679 2.677 6.337 8.708 7.307 8.462C-1.417 10.677.679 2.677 0 0" style="fill:#5dadec;fill-opacity:1;fill-rule:nonzero;stroke:none" transform="translate(10.847 7.77)"/><path d="M0 0a5 5 0 0 1 6.077-3.615 4.998 4.998 0 0 1 3.616 6.076c-.679 2.677-6.338 8.708-7.307 8.462C1.417 10.677-.679 2.677 0 0" style="fill:#5dadec;fill-opacity:1;fill-rule:nonzero;stroke:none" transform="translate(25.133 7.77)"/></g></svg>